<?xml version="1.0" encoding="UTF-8" standalone="no"?>
<svg
   xmlns:dc="http://purl.org/dc/elements/1.1/"
   xmlns:cc="http://creativecommons.org/ns#"
   xmlns:rdf="http://www.w3.org/1999/02/22-rdf-syntax-ns#"
   xmlns:svg="http://www.w3.org/2000/svg"
   xmlns="http://www.w3.org/2000/svg"
   xmlns:sodipodi="http://sodipodi.sourceforge.net/DTD/sodipodi-0.dtd"
   xmlns:inkscape="http://www.inkscape.org/namespaces/inkscape"
   width="135.46666mm"
   height="135.46666mm"
   viewBox="0 0 135.46666 135.46666"
   version="1.1"
   id="svg8"
   inkscape:version="1.0.2 (e86c870879, 2021-01-15)"
   sodipodi:docname="rpi.svg"
   inkscape:export-filename="C:\Users\erasm\OneDrive\Skrivbord\rpi.png"
   inkscape:export-xdpi="99.940002"
   inkscape:export-ydpi="99.940002">
  <defs
     id="defs2">
    <mask
       maskUnits="userSpaceOnUse"
       id="mask916">
      <g
         id="g930"
         style="display:inline">
        <rect
           style="opacity:1;fill:#ffffff;fill-opacity:1;stroke:none;stroke-width:1.97;stroke-linejoin:round;stroke-miterlimit:4;stroke-dasharray:none;stroke-opacity:1"
           id="rect918"
           width="16.489212"
           height="14.457589"
           x="81.64286"
           y="21.072174" />
        <rect
           style="opacity:1;fill:#ffffff;fill-opacity:1;stroke:none;stroke-width:1.97;stroke-linejoin:round;stroke-miterlimit:4;stroke-dasharray:none;stroke-opacity:1"
           id="rect920"
           width="7.4835467"
           height="6.6817379"
           x="102.76513"
           y="21.114292" />
        <rect
           style="opacity:1;fill:#ffffff;fill-opacity:1;stroke:none;stroke-width:1.97;stroke-linejoin:round;stroke-miterlimit:4;stroke-dasharray:none;stroke-opacity:1"
           id="rect922"
           width="13.229842"
           height="17.773424"
           x="47.306705"
           y="24.655613" />
        <rect
           style="opacity:1;fill:#ffffff;fill-opacity:1;stroke:none;stroke-width:1.97;stroke-linejoin:round;stroke-miterlimit:4;stroke-dasharray:none;stroke-opacity:1"
           id="rect924"
           width="22.74577"
           height="12.727857"
           x="8.7312498"
           y="30.134638" />
        <rect
           style="opacity:1;fill:#ffffff;fill-opacity:1;stroke:none;stroke-width:1.97;stroke-linejoin:round;stroke-miterlimit:4;stroke-dasharray:none;stroke-opacity:1"
           id="rect926"
           width="20.379301"
           height="13.563929"
           x="7.3499122"
           y="56.527504" />
        <rect
           style="opacity:1;fill:#ffffff;fill-opacity:1;stroke:none;stroke-width:1.97;stroke-linejoin:round;stroke-miterlimit:4;stroke-dasharray:none;stroke-opacity:1"
           id="rect928"
           width="20.780205"
           height="13.096207"
           x="7.2830944"
           y="80.38131" />
      </g>
    </mask>
  </defs>
  <sodipodi:namedview
     id="base"
     pagecolor="#ffffff"
     bordercolor="#666666"
     borderopacity="1.0"
     inkscape:pageopacity="0.0"
     inkscape:pageshadow="2"
     inkscape:zoom="1.4"
     inkscape:cx="201.74628"
     inkscape:cy="274.55719"
     inkscape:document-units="mm"
     inkscape:current-layer="svg8"
     inkscape:document-rotation="0"
     showgrid="false"
     inkscape:window-width="1694"
     inkscape:window-height="1040"
     inkscape:window-x="104"
     inkscape:window-y="0"
     inkscape:window-maximized="0" />
  <metadata
     id="metadata5">
    <rdf:RDF>
      <cc:Work
         rdf:about="">
        <dc:format>image/svg+xml</dc:format>
        <dc:type
           rdf:resource="http://purl.org/dc/dcmitype/StillImage" />
        <dc:title></dc:title>
      </cc:Work>
    </rdf:RDF>
  </metadata>
  <g
     inkscape:label="Layer 1"
     inkscape:groupmode="layer"
     id="layer1"
     transform="translate(-38.100002,-80.433334)"
     style="display:inline">
    <path
       style="display:inline;fill:#e9c435;stroke-width:0.264583"
       d="M 108.1859,190.76458 H 49.212501 v -5.02708 -5.02709 h -2.458709 -2.458709 l 0.02885,-8.53281 0.02885,-8.53281 0.0486,-2.18281 0.04861,-2.18282 h 2.38125 2.381249 v -1.19062 -1.19063 H 46.869626 44.52675 l -0.163229,-1.91823 -0.16323,-1.91822 0.09946,-8.20209 0.09946,-8.20208 0.02539,-0.59531 0.02539,-0.59532 h 2.38125 2.381249 v -1.19062 -1.19063 h -2.45845 -2.458461 l 0.03618,-11.17864 0.03618,-11.17865 0.04103,-0.7276 0.04103,-0.7276 h 2.371321 2.371321 l 0.07607,-2.4474 0.07607,-2.4474 18.851562,-0.0679 18.851561,-0.0679 v -1.85032 -1.85032 h 5.027083 5.027083 v 1.85208 1.85208 h 2.513542 2.513548 v -1.85208 -1.85208 h 5.02708 5.02708 v 1.85208 1.85208 h 3.04271 3.04271 v -1.85208 -1.85208 h 9.525 9.525 v 1.85208 1.85208 h 1.19062 1.19063 v -1.85208 -1.85208 h 5.02708 5.02708 v 1.85208 1.85208 h 8.84741 8.8474 l 0.0104,42.64072 0.0104,42.64072 -0.15527,0.61865 -0.15525,0.61866 z m -52.470035,-17.54692 8.577886,-0.0201 v -5.63629 -5.63628 h -8.581128 -8.581129 l -0.146386,0.46302 -0.146386,0.46302 0.02284,3.04271 0.02284,3.0427 0.12679,2.15065 0.12679,2.15065 8.577886,-0.0201 z m -5.03254,-2.56141 h -1.17501 l -0.174132,-0.28176 -0.174132,-0.28175 0.170506,-0.90887 0.170506,-0.90887 h 1.178636 1.178636 v 1.19062 1.19063 z m 0.01218,-3.70417 h -1.162834 l -0.120522,-1.12448 -0.120522,-1.12448 0.158877,-0.15888 0.158877,-0.15887 1.124479,0.12052 1.124479,0.12052 v 1.16284 1.16283 z m 4.867,-17.63482 3.042708,-0.04 2.844271,-0.0261 2.844271,-0.0261 v -5.55987 -5.55986 l -8.661828,0.0698 -8.661829,0.0698 -0.04409,5.48141 -0.04409,5.48141 2.818938,0.0748 2.818938,0.0748 z m -4.894791,-2.47351 h -1.190625 v -1.19063 -1.19062 h 1.190625 1.190625 v 1.19062 1.19063 z m -0.160599,-3.70417 H 49.15589 l 0.1606,-0.41851 0.160599,-0.41852 v -0.9044 -0.9044 h 1.190625 1.190625 v 1.32291 1.32292 z m 6.932193,-20.10833 h 10.558613 v -5.55625 -5.55625 h -10.51855 -10.51855 l -0.04006,5.55625 -0.04006,5.55625 z m 34.485573,-1.32292 h 4.876962 l 0.128383,-0.46302 0.128384,-0.46302 -0.04441,-6.87917 -0.04441,-6.87916 -4.960937,-0.072 -4.960938,-0.072 v 7.41417 7.41417 z M 127.79375,114.3 h 6.87916 v -5.55625 -5.55625 h -6.87916 -6.87917 v 5.55625 5.55625 z m -3.175,-6.35 h -1.32292 v -1.19063 -1.19062 h 1.32292 1.32291 v 1.19062 1.19063 z m 6.35,0 h -1.32292 v -1.19063 -1.19062 h 1.32292 1.32291 v 1.19062 1.19063 z m 13.75833,-1.32292 h 2.38125 v -1.71979 -1.71979 h -2.38125 -2.38125 v 1.71979 1.71979 z"
       id="path36" />
    <path
       style="display:inline;fill:#6bb374;stroke-width:0.264583"
       d="M 108.35271,190.76458 H 49.488761 l -0.07198,-4.96094 -0.07198,-4.96094 -2.447396,-0.0761 -2.447395,-0.0761 V 170.12708 159.5636 l 2.447395,-0.0761 2.447396,-0.0761 0.08064,-1.25678 0.08064,-1.25677 H 46.97804 44.450002 v -10.5734 -10.57341 l 2.447395,-0.0761 2.447396,-0.0761 0.08064,-1.25677 0.08064,-1.25678 H 46.97804 44.450002 V 121.17905 109.2728 h 2.513541 2.513542 v -2.51355 -2.51354 h 18.785416 18.785415 v -1.85208 -1.85208 h 5.027083 5.027083 v 1.85208 1.85208 h 2.513542 2.513546 v -1.85208 -1.85208 h 5.02708 5.02708 v 1.85208 1.85208 h 3.175 3.175 v -1.85208 -1.85208 h 9.26042 9.26041 v 1.85208 1.85208 h 1.32292 1.32292 v -1.85208 -1.85208 h 5.02708 5.02708 v 1.85208 1.85208 h 8.73125 8.73125 v 43.25938 43.25937 z m -0.006,-7.67292 h 56.22395 v -38.1 -38.09999 h -7.40833 -7.40833 v 3.70416 3.70417 h -5.02709 -5.02708 v -3.70417 -3.70416 h -1.19063 -1.19062 v 7.54062 7.54063 h -9.525 -9.525 v -7.54063 -7.54062 h -3.04271 -3.04271 V 120.12083 133.35 h -5.15937 -5.15938 v -13.22917 -13.22916 h -1.05833 -1.058332 v 11.24479 11.24479 H 92.074991 84.402075 V 118.13646 106.89167 H 68.262493 52.12291 v 1.19062 1.19063 h 9.395404 9.395404 l -0.06884,11.97239 -0.06884,11.9724 -9.326562,0.0695 -9.326562,0.0695 v 1.05083 1.05082 l 7.453811,0.0703 7.453811,0.0703 -0.01802,10.71562 -0.01802,10.71563 -7.435797,0.0703 -7.435781,0.0703 v 1.05421 1.05421 h 7.408333 7.408333 l 0.02146,1.32292 0.02146,1.32292 v 8.59895 8.59896 l -0.02146,0.92604 -0.02146,0.92605 h -7.408333 -7.408333 v 1.05833 1.05833 h 56.223952 z m 8.73141,-2.11666 H 83.079166 v -9.525 -9.525 h 33.998954 33.99896 v 9.525 9.525 z m 0,-11.64167 h 31.35313 v -2.38125 -2.38125 H 117.07812 85.725 v 2.38125 2.38125 z M 89.561458,168.275 h -1.190625 v -1.32292 -1.32292 h 1.190625 1.190625 v 1.32292 1.32292 z m 5.027083,0 h -1.190625 v -1.32292 -1.32292 h 1.190625 1.190625 v 1.32292 1.32292 z m 5.027083,0 h -1.190625 v -1.32292 -1.32292 h 1.190625 1.190626 v 1.32292 1.32292 z m 5.027086,0 h -1.19063 v -1.32292 -1.32292 h 1.19063 1.19062 v 1.32292 1.32292 z m 5.02708,0 h -1.19062 v -1.32292 -1.32292 h 1.19062 1.19063 v 1.32292 1.32292 z m 5.04158,0 h -1.20512 v -1.33813 -1.33813 l 1.12448,0.0814 1.12448,0.0813 0.0806,1.25678 0.0806,1.25677 z m 5.01878,0 h -1.21343 l -0.14263,-0.37169 -0.14263,-0.37169 0.0848,-0.88508 0.0848,-0.88509 h 1.19062 1.19063 l 0.0806,1.25678 0.0806,1.25677 z m 5.02708,0 h -1.21342 l -0.14263,-0.37169 -0.14263,-0.37169 0.0848,-0.88508 0.0848,-0.88509 h 1.19063 1.19062 l 0.0807,1.25678 0.0806,1.25677 z m 5.02709,0 h -1.21343 l -0.14263,-0.37169 -0.14263,-0.37169 0.0848,-0.88508 0.0848,-0.88509 h 1.19062 1.19063 l 0.0806,1.25678 0.0806,1.25677 z m 4.88859,0 H 133.321 l 0.0806,-1.25677 0.0806,-1.25678 h 1.19062 1.19063 l 0.0806,1.25678 0.0806,1.25677 z m 5.02709,0 h -1.35191 l 0.0806,-1.25677 0.0806,-1.25678 h 1.19063 1.19062 l 0.0806,1.25678 0.0806,1.25677 z m 5.04158,0 h -1.33742 v -1.33742 -1.33741 l 1.25677,0.0806 1.25678,0.0806 0.0806,1.25678 0.0806,1.25677 z m -60.709353,-8.73166 -6.641602,-4.2e-4 -0.907235,-0.4626 -0.907232,-0.46261 -0.547976,-0.7465 -0.547973,-0.7465 -0.07166,-7.98475 -0.07166,-7.98475 0.468535,-0.92077 0.468538,-0.92077 0.899022,-0.60059 0.899025,-0.60058 h 6.95203 6.95203 l 0.823552,0.69297 0.823553,0.69298 0.387374,0.74909 0.387371,0.7491 -5.29e-4,7.7522 -5.29e-4,7.7522 -0.462608,0.92077 -0.462611,0.92076 -0.899023,0.60059 -0.899025,0.60059 -6.641599,-5.3e-4 z m -0.159311,-7.67251 h 6.047618 l 0.415775,-0.41577 0.415774,-0.41578 v -4.6287 -4.6287 l -0.273892,-0.51178 -0.273894,-0.51177 h -6.331381 -6.331381 l -0.273894,0.51177 -0.273891,0.51178 v 4.6287 4.6287 l 0.415774,0.41578 0.415774,0.41577 z m 47.095834,7.65516 -12.30313,-0.0158 -0.52916,-0.21588 -0.52917,-0.21588 -0.72419,-0.72605 -0.72418,-0.72605 -0.26653,-0.95953 -0.26653,-0.95952 -0.002,-10.53232 -0.002,-10.53232 0.29605,-1.17571 0.29605,-1.17572 0.88892,-0.78048 0.88892,-0.78048 0.86555,-0.15904 0.86555,-0.15903 11.90625,0.0798 11.90625,0.0798 0.88983,0.63465 0.88983,0.63464 0.36694,0.87821 0.36694,0.87821 -10e-4,11.58402 -0.001,11.58402 -0.52576,0.86231 -0.52576,0.86232 -0.86232,0.52576 -0.86231,0.52575 -12.30313,-0.0158 z m -0.0983,-7.65516 h 11.70215 l 0.41577,-0.41577 0.41577,-0.41578 v -8.49308 -8.49308 l -0.43788,-0.48385 -0.43788,-0.48386 h -11.48576 -11.48576 l -0.51178,0.2739 -0.51177,0.27389 v 8.80131 8.80132 l 0.3175,0.3175 0.3175,0.3175 z m 26.42432,7.67292 h -5.15938 v -16.40417 -16.40416 h 5.15938 5.15937 v 16.40416 16.40417 z m 0,-7.67292 h 2.51354 v -11.24479 -11.24479 h -2.51354 -2.51354 v 11.24479 11.24479 z M 55.73889,178.32916 h 8.554861 v -1.19062 -1.19063 h -8.73125 -8.731249 v 1.01424 1.01424 l 0.176389,0.17638 0.176388,0.17639 z m -0.0441,-5.02708 h 8.863541 V 167.61354 161.925 H 55.69479 46.831249 v 5.68854 5.68854 z m -0.147505,-19.05 h 8.746463 v -1.19424 -1.19424 l -8.665104,0.0698 -8.665104,0.0698 -0.08136,1.12448 -0.08136,1.12448 z m 0.147505,-4.7625 h 8.863541 v -5.68854 -5.68854 H 55.69479 46.831249 v 5.68854 5.68854 z m 1.852083,-19.05 h 10.715625 v -2.38125 -2.38125 H 57.546876 46.831252 v 2.38125 2.38125 z m 34.528123,-3.70416 h 5.027083 v -1.19063 -1.19062 h -5.027083 -5.027083 v 1.19062 1.19063 z m 15.112334,-1.32292 h 2.35017 v -11.24479 -11.24479 h -2.38125 -2.38125 l -0.0453,1.25677 -0.0453,1.25677 -0.0619,8.06979 -0.0619,8.06979 0.1383,1.91823 0.1383,1.91823 z m -1.48629,-17.2495 -0.79375,-0.01 0.46806,-0.12197 0.46805,-0.12197 0.3257,0.13178 0.32569,0.13177 -0.79375,-0.01 z m -48.148905,14.86825 h 10.720888 l -0.07141,-5.6224 -0.07141,-5.62239 -10.649479,-0.0692 -10.649478,-0.0691 v 5.69155 5.69154 z m 34.456716,-1.11864 4.960937,-0.072 V 114.3 106.75937 l -4.960937,-0.072 -4.960938,-0.072 v 7.68459 7.68459 z m 35.784899,-2.58553 h 6.87916 v -1.19062 -1.19063 h -6.87916 -6.87917 v 1.19063 1.19062 z m 0,-5.02708 h 6.87916 v -5.68854 -5.68854 h -6.87916 -6.87917 v 5.68854 5.68854 z m 16.93333,-2.64583 h 2.38125 v -1.19063 -1.19062 h -2.38125 -2.38125 v 1.19062 1.19063 z m 0.0617,-4.81866 2.45187,-0.0761 v -1.85208 -1.85208 h -2.51354 -2.51354 l -0.0804,1.55787 -0.0804,1.55788 0.14211,0.37034 0.14212,0.37034 z m -53.375212,-2.58968 h 1.984375 v -0.50976 -0.50977 l 0.463021,-0.121 0.463021,-0.121 -2.447396,-0.0307 -2.447396,-0.0307 v 0.66145 0.66146 z m 3.175,0 h 0.132292 v -0.13229 -0.13229 h -0.132292 -0.132292 v 0.13229 0.13229 z"
       id="path30"
       sodipodi:nodetypes="cccccccccccccccccccccccccccccccccccccccccccccccccccccccccccccccccccccccccccccccccccccccccccccccccccccccccccccccccccccccccccccccccccccccccccccccccccccccccccccccccccccccccccccccccccccccccccccccccccccccccccccccccccccccccccccccccccccccccccccccccccccccccccccccccccccccccccccccccccccccccccccccccccccccccccccccccccccccccccccccccccccccccccccccccccccccccccccccccccccccccccccccccccccccccccccccccccccccccccccccccccccccccccccccccccccccccccccccccccccccccccccccccccccccccccccccccccccccccccccccccccccccccccccccccccccccccccccccccccccccccccccccc" />
    <path
       style="display:inline;fill:#78c37a;stroke-width:0.264583"
       d="M 108.1859,190.76458 H 49.212501 v -5.02708 -5.02709 h -2.458709 -2.458709 l 0.02885,-8.53281 0.02885,-8.53281 0.0486,-2.18281 0.04861,-2.18282 h 2.38125 2.381249 v -1.19062 -1.19063 H 46.869626 44.52675 l -0.163229,-1.91823 -0.16323,-1.91822 0.09946,-8.20209 0.09946,-8.20208 0.02539,-0.59531 0.02539,-0.59532 h 2.38125 2.381249 v -1.19062 -1.19063 h -2.45845 -2.458461 l 0.03618,-11.17864 0.03618,-11.17865 0.04103,-0.7276 0.04103,-0.7276 h 2.371321 2.371321 l 0.07607,-2.4474 0.07607,-2.4474 18.851562,-0.0679 18.851561,-0.0679 v -1.85032 -1.85032 h 5.027083 5.027083 v 1.85208 1.85208 h 2.513542 2.513548 v -1.85208 -1.85208 h 5.02708 5.02708 v 1.85208 1.85208 h 3.04271 3.04271 v -1.85208 -1.85208 h 9.525 9.525 v 1.85208 1.85208 h 1.19062 1.19063 v -1.85208 -1.85208 h 5.02708 5.02708 v 1.85208 1.85208 h 8.84741 8.8474 l 0.0104,42.64072 0.0104,42.64072 -0.15527,0.61865 -0.15525,0.61866 z m -52.470035,-17.54688 8.577886,-0.0201 v -5.63629 -5.63628 h -8.581128 -8.581129 l -0.146386,0.46302 -0.146386,0.46302 0.02284,3.04271 0.02284,3.0427 0.12679,2.15065 0.12679,2.15065 8.577886,-0.0201 z m -5.03254,-2.56141 h -1.17501 l -0.174132,-0.28176 -0.174132,-0.28175 0.170506,-0.90887 0.170506,-0.90887 h 1.178636 1.178636 v 1.19062 1.19063 z m 0.01218,-3.70417 h -1.162834 l -0.120522,-1.12448 -0.120522,-1.12448 0.158877,-0.15888 0.158877,-0.15887 1.124479,0.12052 1.124479,0.12052 v 1.16284 1.16283 z m 4.867,-17.63482 3.042708,-0.04 2.844271,-0.0261 2.844271,-0.0261 v -5.55987 -5.55986 l -8.661828,0.0698 -8.661829,0.0698 -0.04409,5.48141 -0.04409,5.48141 2.818938,0.0748 2.818938,0.0748 z m -4.894791,-2.47351 h -1.190625 v -1.19063 -1.19062 h 1.190625 1.190625 v 1.19062 1.19063 z m -0.160599,-3.70417 H 49.15589 l 0.1606,-0.41851 0.160599,-0.41852 v -0.9044 -0.9044 h 1.190625 1.190625 v 1.32291 1.32292 z m 107.978295,6.35 h 1.32292 v -1.32292 -1.32291 h -1.32292 -1.32291 v 1.32291 1.32292 z m 0,-5.02708 h 1.32292 v -1.32292 -1.32292 h -1.32292 -1.32291 v 1.32292 1.32292 z m 0,-5.02709 h 1.32292 v -1.32291 -1.32292 h -1.32292 -1.32291 v 1.32292 1.32291 z m -0.0145,-5.02708 h 1.33742 v -1.33741 -1.33741 l -1.25677,0.0806 -1.25677,0.0806 -0.0807,1.25677 -0.0806,1.25677 z M 57.439304,123.03125 h 10.558613 v -5.55625 -5.55625 h -10.51855 -10.51855 l -0.04006,5.55625 -0.04006,5.55625 z m 48.394026,0 h 1.32292 V 121.84062 120.65 h -1.32292 -1.32291 v 1.19062 1.19063 z m -13.908453,-1.32292 h 4.876962 l 0.128383,-0.46302 0.128384,-0.46302 -0.04441,-6.87917 -0.04441,-6.87916 -4.960937,-0.072 -4.960938,-0.072 v 7.41417 7.41417 z m 13.908453,-3.70416 h 1.32292 v -1.19063 -1.19062 h -1.32292 -1.32291 v 1.19062 1.19063 z M 127.79375,114.3 h 6.87916 v -5.55625 -5.55625 h -6.87916 -6.87917 v 5.55625 5.55625 z m -3.175,-6.35 h -1.32292 v -1.19063 -1.19062 h 1.32292 1.32291 v 1.19062 1.19063 z m 6.35,0 h -1.32292 v -1.19063 -1.19062 h 1.32292 1.32291 v 1.19062 1.19063 z m 26.87353,7.5509 c -1.63132,2.20639 2.9859,-2.00542 3.49651,-2.43868 -0.99014,-1.26252 -1.64492,-2.37179 -3.21329,-2.37179 -1.12445,0.0808 -3.9063,1.7349 -3.76146,2.48704 0.74701,0.9716 2.77204,4.22511 3.47824,2.32343 z m -52.00895,-2.52382 h 1.32292 v -1.19062 -1.19063 h -1.32292 -1.32291 v 1.19063 1.19062 z m 0,-5.02708 h 1.32292 v -1.19063 -1.19062 h -1.32292 -1.32291 v 1.19062 1.19063 z m 38.89375,-1.32292 h 2.38125 v -1.71979 -1.71979 h -2.38125 -2.38125 v 1.71979 1.71979 z"
       id="path34"
       sodipodi:nodetypes="ccccccccccccccccccccccccccccccccccccccccccccccccccccccccccccccccccccccccccccccccccccccccccccccccccccccccccccccccccccccccccccccccccccccccccccccccccccccccccccccccccccccccccccccccccccccccccccccccccccccccccccccccccccccccccccccccccccccccccccccccccccccccccccccccccccccccccccccccccccc" />
    <path
       style="display:inline;fill:#7b8b93;stroke-width:0.264583"
       d="M 108.1859,190.76458 H 49.212501 v -5.02708 -5.02709 h -2.458709 -2.458709 l 0.02885,-8.53281 0.02885,-8.53281 0.0486,-2.18281 0.04861,-2.18282 h 2.38125 2.381249 v -1.19062 -1.19063 H 46.869626 44.52675 l -0.163229,-1.91823 -0.16323,-1.91822 0.09946,-8.20209 0.09946,-8.20208 0.02539,-0.59531 0.02539,-0.59532 h 2.38125 2.381249 v -1.19062 -1.19063 h -2.45845 -2.458461 l 0.03618,-11.17864 0.03618,-11.17865 0.04103,-0.7276 0.04103,-0.7276 h 2.371321 2.371321 l 0.07607,-2.4474 0.07607,-2.4474 18.851562,-0.0679 18.851561,-0.0679 v -1.85032 -1.85032 h 5.027083 5.027083 v 1.85208 1.85208 h 2.513542 2.513548 v -1.85208 -1.85208 h 5.02708 5.02708 v 1.85208 1.85208 h 3.04271 3.04271 v -1.85208 -1.85208 h 9.525 9.525 v 1.85208 1.85208 h 1.19062 1.19063 v -1.85208 -1.85208 h 5.02708 5.02708 v 1.85208 1.85208 h 8.84741 8.8474 l 0.0104,42.64072 0.0104,42.64072 -0.15527,0.61865 -0.15527,0.61866 h -58.9734 z m 0.16097,-7.67292 h 56.22396 v -38.1 -38.09999 h -7.40833 -7.40834 V 110.59583 114.3 H 144.72708 139.7 v -3.70417 -3.70416 h -1.19063 -1.19062 v 7.54062 7.54063 h -9.525 -9.525 v -7.54063 -7.54062 h -3.04271 -3.04271 V 120.12083 133.35 h -5.15937 -5.15938 v -13.22917 -13.22916 h -1.05833 -1.058334 v 11.24479 11.24479 H 92.074999 84.402083 V 118.13646 106.89167 H 68.262501 52.122918 v 1.19062 1.19063 h 9.395404 9.395404 l -0.06884,11.97239 -0.06884,11.9724 -9.326562,0.0695 -9.326562,0.0695 v 1.05083 1.05082 l 7.453811,0.0703 7.453811,0.0703 -0.01802,10.71562 -0.01802,10.71563 -7.435796,0.0703 -7.435789,0.0703 v 1.05421 1.05421 h 7.408333 7.408333 l 0.02146,1.32292 0.02146,1.32292 v 8.59895 8.59896 l -0.02146,0.92604 -0.02146,0.92605 h -7.408333 -7.408333 v 1.05833 1.05833 z m 8.73125,-2.11666 H 83.079166 v -9.525 -9.525 h 33.998954 33.99896 v 9.525 9.525 z m -33.045893,-21.43166 -6.641602,-4.2e-4 -0.907235,-0.4626 -0.907232,-0.46261 -0.547976,-0.7465 -0.547973,-0.7465 -0.07166,-7.98475 -0.07166,-7.98475 0.468535,-0.92077 0.468538,-0.92077 0.899022,-0.60059 0.899025,-0.60058 h 6.95203 6.95203 l 0.823552,0.69297 0.823553,0.69298 0.387374,0.74909 0.387371,0.7491 -5.29e-4,7.7522 -5.29e-4,7.7522 -0.462608,0.92077 -0.462611,0.92076 -0.899023,0.60059 -0.899025,0.60059 -6.641599,-5.3e-4 z m 46.936523,-0.0173 -12.30313,-0.0158 -0.52916,-0.21588 -0.52917,-0.21588 -0.72419,-0.72605 -0.72418,-0.72605 -0.26653,-0.95953 -0.26653,-0.95952 -0.002,-10.53232 -0.002,-10.53232 0.29605,-1.17571 0.29605,-1.17572 0.88892,-0.78048 0.88892,-0.78048 0.86555,-0.15904 0.86555,-0.15903 11.90625,0.0798 11.90625,0.0798 0.88983,0.63465 0.88983,0.63464 0.36694,0.87821 0.36694,0.87821 -10e-4,11.58402 -0.001,11.58402 -0.52576,0.86231 -0.52576,0.86232 -0.86232,0.52576 -0.86231,0.52575 -12.30313,-0.0158 z m 26.32604,0.0178 h -5.15938 v -16.40416 -16.40417 h 5.15938 5.15937 v 16.40417 16.40416 z m 1.19062,-10.05416 h 1.32292 v -1.32292 -1.32292 h -1.32292 -1.32291 v 1.32292 1.32292 z m 0,-5.02709 h 1.32292 v -1.32291 -1.32292 h -1.32292 -1.32291 v 1.32292 1.32291 z m 0,-5.02708 h 1.32292 v -1.32292 -1.32291 h -1.32292 -1.32291 v 1.32291 1.32292 z m 0,-5.02708 h 1.32292 v -1.32292 -1.32292 h -1.32292 -1.32291 v 1.32292 1.32292 z m -52.65208,-11.37718 h 1.35191 l -0.0806,-1.25677 -0.0806,-1.25677 h -1.19063 -1.19062 l -0.0806,1.25677 -0.0806,1.25677 z m 0,-5.02708 h 1.35191 l -0.0806,-1.25678 -0.0806,-1.25677 h -1.19063 -1.19062 l -0.0806,1.25677 -0.0806,1.25678 z m 0.11364,-4.98419 1.20928,-0.0962 v -1.16398 -1.16399 h -1.32292 -1.32291 v 1.14653 1.14653 l 0.11363,0.11363 0.11363,0.11364 z m -0.0693,-4.94257 1.14625,-0.005 0.0806,-1.25189 0.0806,-1.25188 h -1.33741 -1.33741 v 1.14653 1.14653 l 0.11052,0.11024 0.11053,0.11024 1.14624,-0.005 z"
       id="path32"
       sodipodi:nodetypes="cccccccccccccccccccccccccccccccccccccccccccccccccccccccccccccccccccccccccccccccccccccccccccccccccccccccccccccccccccccccccccccccccccccccccccccccccccccccccccccccccccccccccccccccccccccccccccccccccccccccccccccccccccccccccccccccccccccccccccccccccccccccccccccccccccccccccccccccccccccccccccccccccccccccc" />
    <path
       style="display:inline;fill:#576567;stroke-width:0.264583"
       d="M 108.35271,190.76458 H 49.488761 l -0.07198,-4.96094 -0.07198,-4.96094 -2.447396,-0.0761 -2.447395,-0.0761 V 170.12708 159.5636 l 2.447395,-0.0761 2.447396,-0.0761 0.08064,-1.25678 0.08064,-1.25677 H 46.97804 44.450002 v -10.5734 -10.57341 l 2.447395,-0.0761 2.447396,-0.0761 0.08064,-1.25677 0.08064,-1.25678 H 46.97804 44.450002 V 121.17905 109.2728 h 2.513541 2.513542 v -2.51355 -2.51354 h 18.785416 18.785415 v -1.85208 -1.85208 h 5.027083 5.027083 v 1.85208 1.85208 h 2.513542 2.513546 v -1.85208 -1.85208 h 5.02708 5.02708 v 1.85208 1.85208 h 3.175 3.175 v -1.85208 -1.85208 h 9.26042 9.26041 v 1.85208 1.85208 h 1.32292 1.32292 v -1.85208 -1.85208 h 5.02708 5.02708 v 1.85208 1.85208 h 8.73125 8.73125 v 43.25938 43.25937 z m 0.01,-2.64583 h 56.53461 l -0.15954,-0.59532 -0.15953,-0.59531 -0.004,-0.55061 -0.004,-0.55061 -56.2901,0.0214 -56.290104,0.0214 -0.08136,1.12448 -0.08136,1.12448 h 56.534614 z m 0.0952,-4.82804 56.24539,-0.0668 0.067,-38.16614 0.067,-38.16614 h -7.54152 -7.54152 v 3.7042 V 114.3 H 144.72708 139.7 v -3.70417 -3.70416 h -1.18651 -1.1865 l -0.0703,7.47447 -0.0703,7.47448 h -9.39271 -9.39271 l -0.0703,-7.47448 -0.0703,-7.47447 h -3.03859 -3.03859 v 13.09687 13.09687 h -4.99818 -4.99817 l -0.19243,-5.13221 -0.19244,-5.13221 0.10363,-7.96466 0.10362,-7.96466 h -1.27533 -1.275341 l 0.181335,6.01927 0.181335,6.01927 -0.197919,5.22552 -0.197922,5.22552 H 91.913802 84.402083 V 118.13646 106.89167 H 68.130209 51.858335 v 1.19062 1.19063 h 9.351447 9.351448 l 0.182898,5.95312 0.182901,5.95313 -0.182901,5.95312 -0.182898,5.95312 h -9.351448 -9.351447 v 1.19063 1.19062 h 7.540624 7.540625 v 10.71563 10.71562 h -7.555121 -7.555122 l 0.08064,1.25677 0.08064,1.25678 7.474479,0.0703 7.474479,0.0703 v 10.57921 10.57921 H 59.398954 51.85833 v 1.14653 1.14653 l 0.176998,0.177 0.176999,0.177 z m 8.79355,-2.5803 H 83.425493 l -0.153583,-5.96014 -0.153583,-5.96013 0.15266,-3.43257 0.152662,-3.43257 h 33.826711 33.82672 v 9.3927 9.39271 z m -0.17316,-11.37708 h 31.35313 v -2.38125 -2.38125 H 117.07812 85.725 v 2.38125 2.38125 z M 89.561458,168.275 h -1.190625 v -1.32292 -1.32292 h 1.190625 1.190625 v 1.32292 1.32292 z m 5.027083,0 h -1.190625 v -1.32292 -1.32292 h 1.190625 1.190625 v 1.32292 1.32292 z m 5.027083,0 h -1.190625 v -1.32292 -1.32292 h 1.190625 1.190626 v 1.32292 1.32292 z m 5.027086,0 h -1.19063 v -1.32292 -1.32292 h 1.19063 1.19062 v 1.32292 1.32292 z m 5.02708,0 h -1.19062 v -1.32292 -1.32292 h 1.19062 1.19063 v 1.32292 1.32292 z m 5.04158,0 h -1.20512 v -1.33813 -1.33813 l 1.12448,0.0814 1.12448,0.0813 0.0806,1.25678 0.0806,1.25677 z m 5.01878,0 h -1.21343 l -0.14263,-0.37169 -0.14263,-0.37169 0.0848,-0.88508 0.0848,-0.88509 h 1.19062 1.19063 l 0.0806,1.25678 0.0806,1.25677 z m 5.02708,0 h -1.21342 l -0.14263,-0.37169 -0.14263,-0.37169 0.0848,-0.88508 0.0848,-0.88509 h 1.19063 1.19062 l 0.0807,1.25678 0.0806,1.25677 z m 5.02709,0 h -1.21343 l -0.14263,-0.37169 -0.14263,-0.37169 0.0848,-0.88508 0.0848,-0.88509 h 1.19062 1.19063 l 0.0806,1.25678 0.0806,1.25677 z m 4.88859,0 H 133.321 l 0.0806,-1.25677 0.0806,-1.25678 h 1.19062 1.19063 l 0.0806,1.25678 0.0806,1.25677 z m 5.02709,0 h -1.35191 l 0.0806,-1.25677 0.0806,-1.25678 h 1.19063 1.19062 l 0.0806,1.25678 0.0806,1.25677 z m 5.04158,0 h -1.33742 v -1.33742 -1.33741 l 1.25677,0.0806 1.25678,0.0806 0.0806,1.25678 0.0806,1.25677 z m -60.868674,-8.74742 -6.217708,-0.005 -0.79375,-0.35278 -0.79375,-0.35279 -0.577688,-0.62905 -0.577689,-0.62904 -0.282207,-0.74483 -0.282207,-0.74483 v -7.33505 -7.33504 l 0.595312,-1.16097 0.595313,-1.16096 0.921914,-0.4826 0.921914,-0.4826 6.486419,5.3e-4 6.486419,5.3e-4 0.926041,0.46261 0.926042,0.46261 0.595312,1.18054 0.595313,1.18054 -0.0058,7.41842 -0.0058,7.41842 -0.514421,1.13341 -0.514422,1.13341 -1.133414,0.51443 -1.133393,0.51419 z m 0,-7.65675 h 6.047618 l 0.415775,-0.41577 0.415774,-0.41578 v -4.6287 -4.6287 l -0.273892,-0.51178 -0.273894,-0.51177 h -6.331381 -6.331381 l -0.273894,0.51177 -0.273891,0.51178 v 4.6287 4.6287 l 0.415774,0.41578 0.415774,0.41577 z m 46.963544,7.66669 -11.90625,0.005 -0.92077,-0.46261 -0.92077,-0.46261 -0.60059,-0.89902 -0.60058,-0.89902 v -11.76975 -11.76975 l 0.55471,-0.89754 0.55471,-0.89754 0.83435,-0.4566 0.83435,-0.45661 h 12.34987 12.34987 l 0.73066,0.54552 0.73065,0.54551 0.54552,0.73037 0.54552,0.73036 0.0741,11.61744 0.0741,11.61743 -0.55268,1.08334 -0.55268,1.08335 -1.10896,0.50347 -1.10895,0.50347 z m 0.034,-7.66669 h 11.70215 l 0.41577,-0.41577 0.41577,-0.41578 v -8.49308 -8.49308 l -0.43788,-0.48385 -0.43788,-0.48386 h -11.48576 -11.48576 l -0.51178,0.2739 -0.51177,0.27389 v 8.80131 8.80132 l 0.3175,0.3175 0.3175,0.3175 z m 26.24885,7.67292 h -4.98794 l 0.0682,-16.33802 0.0682,-16.33802 4.91843,-0.0718 4.91841,-0.0718 0.17424,6.55412 0.17424,6.55412 -2.7e-4,6.08542 -2.6e-4,6.08541 -0.17248,3.77031 -0.17248,3.77032 h -4.98795 z m 0.17547,-7.67292 h 2.51354 v -11.24479 -11.24479 h -2.51354 -2.51354 v 11.24479 11.24479 z M 55.73889,178.32916 h 8.554861 v -1.19062 -1.19063 h -8.73125 -8.731249 v 1.01424 1.01424 l 0.176389,0.17638 0.176388,0.17639 z m -0.0441,-5.02708 h 8.863541 V 167.61354 161.925 H 55.69479 46.831249 v 5.68854 5.68854 z m -0.147505,-19.05 h 8.746463 v -1.19424 -1.19424 l -8.665104,0.0698 -8.665104,0.0698 -0.08136,1.12448 -0.08136,1.12448 z m 0.147505,-4.7625 h 8.863541 v -5.68854 -5.68854 H 55.69479 46.831249 v 5.68854 5.68854 z m 1.852083,-19.05 h 10.715625 v -2.38125 -2.38125 H 57.546876 46.831252 v 2.38125 2.38125 z m 34.528123,-3.70416 h 5.027083 v -1.19063 -1.19062 h -5.027083 -5.027083 v 1.19062 1.19063 z m 15.112334,-1.32292 h 2.35017 v -11.24479 -11.24479 h -2.38125 -2.38125 l -0.0453,1.25677 -0.0453,1.25677 -0.0619,8.06979 -0.0619,8.06979 0.1383,1.91823 0.1383,1.91823 z m -49.635195,-2.38125 h 10.720888 l -0.07141,-5.6224 -0.07141,-5.62239 -10.649479,-0.0692 -10.649478,-0.0691 v 5.69155 5.69154 z m 34.456716,-1.11864 4.960937,-0.072 V 114.3 106.75937 l -4.960937,-0.072 -4.960938,-0.072 v 7.68459 7.68459 z m 35.784899,-2.58553 h 6.87916 v -1.19062 -1.19063 h -6.87916 -6.87917 v 1.19063 1.19062 z m 0,-5.02708 h 6.87916 v -5.68854 -5.68854 h -6.87916 -6.87917 v 5.68854 5.68854 z m 16.93333,-2.64583 h 2.38125 v -1.19063 -1.19062 h -2.38125 -2.38125 v 1.19062 1.19063 z m 0.0617,-4.81866 2.45187,-0.0761 v -1.85208 -1.85208 h -2.51354 -2.51354 l -0.0804,1.55787 -0.0804,1.55788 0.14211,0.37034 0.14212,0.37034 z m -53.375212,-2.58968 h 1.984375 v -0.50976 -0.50977 l 0.463021,-0.121 0.463021,-0.121 -2.447396,-0.0307 -2.447396,-0.0307 v 0.66145 0.66146 z m 3.175,0 h 0.132292 v -0.13229 -0.13229 h -0.132292 -0.132292 v 0.13229 0.13229 z"
       id="path28"
       sodipodi:nodetypes="cccccccccccccccccccccccccccccccccccccccccccccccccccccccccccccccccccccccccccccccccccccccccccccccccccccccccccccccccccccccccccccccccccccccccccccccccccccccccccccccccccccccccccccccccccccccccccccccccccccccccccccccccccccccccccccccccccccccccccccccccccccccccccccccccccccccccccccccccccccccccccccccccccccccccccccccccccccccccccccccccccccccccccccccccccccccccccccccccccccccccccccccccccccccccccccccccccccccccccccccccccccccccccccccccccccccccccccccccccccccccccccccccccccccccccccccccccccccccccccccccccccccccccccccccccccccccccccccccccccccccccccccccccccccccc" />
    <path
       style="display:inline;fill:#313438;stroke-width:0.264583"
       d="M 108.34687,190.76458 H 49.477085 v -5.02708 -5.02709 h -2.513542 -2.513541 v -10.58333 -10.58333 h 2.513541 2.513542 v -1.32292 -1.32292 h -2.513542 -2.513541 v -10.58333 -10.58333 h 2.513541 2.513542 v -1.32292 -1.32292 h -2.513542 -2.513541 v -11.90624 -11.90625 h 2.513541 2.513542 v -2.51355 -2.51354 h 18.785416 18.785415 v -1.85208 -1.85208 h 4.894792 4.894791 v 1.85208 1.85208 h 2.645833 2.645838 v -1.85208 -1.85208 h 4.89479 4.89479 v 1.85208 1.85208 h 3.30729 3.30729 v -1.85208 -1.85208 h 9.26042 9.26041 v 1.85208 1.85208 h 1.32292 1.32292 v -1.85208 -1.85208 h 5.02708 5.02708 v 1.85208 1.85208 h 8.73125 8.73125 v 43.25938 43.25937 z m 0,-2.38125 h 56.48854 v -1.32292 -1.32291 H 108.34687 51.858335 v 1.32291 1.32292 z m 0,-5.02708 h 56.48854 v -38.36459 -38.36458 h -7.54062 -7.54063 V 110.46354 114.3 H 144.72708 139.7 v -3.85096 -3.85095 l -1.25677,0.0806 -1.25677,0.0806 0.0975,2.33843 0.0975,2.33843 -0.19258,5.13605 -0.19258,5.13605 h -9.1993 -9.1993 l -0.1935,-4.90267 -0.1935,-4.90267 0.0951,-2.57181 0.0951,-2.57181 h -3.17366 -3.17365 l 0.0903,8.59896 0.0903,8.59896 -0.19444,4.56406 -0.19444,4.56406 h -4.85812 -4.85812 V 119.85617 106.627 h -1.32292 -1.322918 v 11.37709 11.37708 H 92.103905 84.72448 l -0.194426,-5.18533 -0.194426,-5.18532 0.09937,-6.12561 0.09937,-6.12562 -16.33802,-0.0682 -16.33802,-0.0682 v 1.32493 1.32494 h 9.392708 9.392707 v 11.90625 11.90624 h -9.392707 -9.392708 v 1.32292 1.32292 h 7.540624 7.540625 v 10.58333 10.58333 h -7.540625 -7.540624 v 1.32292 1.32292 h 7.540624 7.540625 v 10.58333 10.58333 h -7.540625 -7.540624 v 1.32292 1.32292 z m 8.69038,-2.64584 h -33.6935 v -9.39271 -9.3927 h 33.69442 33.69443 l 0.15266,3.43257 0.15266,3.43257 -0.15358,5.96013 -0.15359,5.96014 z m 0.0409,-2.38125 h 31.35313 v -3.175 -3.175 H 117.07812 85.725 v 3.175 3.175 z m 0,-8.73125 h 31.35313 v -2.64583 -2.64583 H 117.07812 85.725 v 2.64583 2.64583 z M 83.872916,159.27718 h -6.746874 l -0.847051,-0.51647 -0.84705,-0.51648 -0.372954,-0.7393 -0.372954,-0.73931 -0.145841,-4.36562 -0.145841,-4.36563 0.178708,-3.88887 0.178705,-3.88887 0.777663,-0.8117 0.777661,-0.81171 1.017082,-0.27387 1.017082,-0.27387 6.186728,0.0797 6.186725,0.0796 0.729946,0.54551 0.729943,0.54552 0.519342,0.6956 0.519346,0.69561 0.0027,7.887 0.0027,7.88701 -0.452384,0.87159 -0.452385,0.8716 -0.84705,0.51648 -0.84705,0.51647 h -6.746875 z m 0,-2.37927 h 6.244167 l 0.3175,-0.3175 0.3175,-0.3175 v -0.93927 -0.93927 H 83.872916 76.99375 v 0.93927 0.93927 l 0.3175,0.3175 0.3175,0.3175 z m 0,-5.02708 h 6.244167 l 0.3175,-0.3175 0.3175,-0.3175 v -4.95527 -4.95526 l -0.415774,-0.41578 -0.415775,-0.41577 h -5.979538 -5.979538 l -0.483854,0.43788 -0.483854,0.43788 v 4.93316 4.93316 l 0.3175,0.3175 0.3175,0.3175 z m 47.314764,7.34194 -12.78664,0.0659 -0.83534,-0.53936 -0.83535,-0.53936 -0.42142,-1.05325 -0.42143,-1.05325 5.3e-4,-11.1733 5.3e-4,-11.17329 0.4626,-0.92077 0.46262,-0.92076 0.89902,-0.60059 0.89902,-0.60059 12.33014,0.001 12.33015,0.001 0.84705,0.51648 0.84705,0.51647 0.39332,0.76061 0.39332,0.7606 0.18503,6.19641 0.18502,6.19641 -0.19918,5.79192 -0.19918,5.79191 -0.87499,0.95496 -0.875,0.95496 -12.78663,0.0659 z m -0.25295,-2.31486 h 11.83443 l 0.3175,-0.3175 0.3175,-0.3175 -3e-5,-0.93927 -4e-5,-0.93927 h -12.5677 -12.5677 l 3e-5,0.841 3e-5,0.841 0.41577,0.41577 0.41578,0.41577 z m -0.14188,-5.02708 h 11.97631 l 0.3175,-0.3175 0.3175,-0.3175 v -8.75771 -8.75771 l -0.3175,-0.3175 -0.3175,-0.3175 h -11.76635 -11.76635 l -0.48386,0.43789 -0.48385,0.43788 v 8.44305 8.44305 l 0.27389,0.51178 0.27389,0.51177 z m 26.54296,7.40833 h -4.85378 l -0.17331,-3.6137 -0.17331,-3.61371 5.3e-4,-5.97744 5.3e-4,-5.97744 0.17409,-6.54843 L 152.48464,127 h 4.85243 4.85242 v 16.13958 16.13958 h -4.85377 z m -0.041,-2.38125 h 2.51354 v -1.19062 -1.19063 h -2.51354 -2.51354 v 1.19063 1.19062 z m 0,-5.02708 h 2.51354 v -11.24479 -11.24479 h -2.51354 -2.51354 v 11.24479 11.24479 z M 55.694793,178.32916 h 8.863541 v -1.32291 -1.32292 h -8.863541 -8.863541 v 1.32292 1.32291 z m 0,-5.02708 h 8.863541 v -5.68854 -5.68854 h -8.863541 -8.863541 v 5.68854 5.68854 z m 0,-18.78542 h 8.863541 v -1.32291 -1.32292 h -8.863541 -8.863541 v 1.32292 1.32291 z m 0,-5.02708 h 8.863541 v -5.68854 -5.68854 h -8.863541 -8.863541 v 5.68854 5.68854 z m 1.852083,-18.78542 h 10.715625 v -2.64583 -2.64583 H 57.546876 46.831252 v 2.64583 2.64583 z m 49.653474,0 h 2.33715 v -1.32291 -1.32292 h -2.51354 -2.51354 v 1.14653 1.14653 l 0.17639,0.17639 0.17638,0.17638 z M 92.074999,127 h 5.027083 v -1.32292 -1.32291 H 92.074999 87.047916 V 125.67708 127 Z m 14.948961,-1.32292 h 2.51354 V 114.3 102.92292 h -2.51354 -2.51354 V 114.3 125.67708 Z M 57.546876,123.29583 H 68.262501 V 117.475 111.65417 H 57.546876 46.831252 v 5.82083 5.82083 z m 34.528123,-1.32291 h 5.027083 V 114.3 106.62708 h -5.027083 -5.027083 v 7.67292 7.67292 z m 35.718751,-2.64584 h 6.87916 v -1.32291 -1.32292 h -6.87916 -6.87917 v 1.32292 1.32291 z m 0,-5.02708 h 6.87916 v -5.68854 -5.68854 h -6.87916 -6.87917 v 5.68854 5.68854 z m 16.86718,-2.43782 2.57969,-0.0757 0.0806,-1.25677 0.0806,-1.25677 h -2.66033 -2.66033 v 1.33249 1.3325 z m 0.0661,-4.97051 h 2.64583 v -1.98438 -1.98437 h -2.64583 -2.64583 v 1.98437 1.98438 z m -52.652081,-2.64584 h 2.645834 v -0.66146 -0.66145 h -2.645834 -2.645833 v 0.66145 0.66146 z"
       id="path26"
       sodipodi:nodetypes="ccccccccccccccccccccccccccccccccccccccccccccccccccccccccccccccccccccccccccccccccccccccccccccccccccccccccccccccccccccccccccccccccccccccccccccccccccccccccccccccccccccccccccccccccccccccccccccccccccccccccccccccccccccccccccccccccccccccccccccccccccccccccccccccccccccccccccccccccccccccccccccccccccccccccccccccccccccccccccccccccccccccccccccccccccccccccccccccccccccccccccccccccccccccccccccccccccccccccccccccccccccccccccccccccccccccccccccccccccccccccccccccccccccccccccc" />
    <circle
       style="display:inline;opacity:1;fill:#e9c435;fill-opacity:1;stroke:#313438;stroke-width:1.92489;stroke-linejoin:round;stroke-miterlimit:4;stroke-dasharray:none;stroke-opacity:1"
       id="path59"
       cx="158.15466"
       cy="113.2464"
       r="3.0699863" />
    <circle
       style="display:inline;opacity:1;fill:#e9c435;fill-opacity:1;stroke:#313438;stroke-width:1.92489;stroke-linejoin:round;stroke-miterlimit:4;stroke-dasharray:none;stroke-opacity:1"
       id="circle884"
       cx="77.645737"
       cy="113.2464"
       r="3.0699863" />
    <circle
       style="display:inline;opacity:1;fill:#e9c435;fill-opacity:1;stroke:#313438;stroke-width:1.92489;stroke-linejoin:round;stroke-miterlimit:4;stroke-dasharray:none;stroke-opacity:1"
       id="circle886"
       cx="75.574394"
       cy="176.93539"
       r="3.0699863" />
    <circle
       style="display:inline;opacity:1;fill:#e9c435;fill-opacity:1;stroke:#313438;stroke-width:1.92489;stroke-linejoin:round;stroke-miterlimit:4;stroke-dasharray:none;stroke-opacity:1"
       id="circle888"
       cx="158.53264"
       cy="176.93539"
       r="3.0699863"
       inkscape:transform-center-x="62.55506" />
  </g>
</svg>
